<svg width="16" height="19" viewBox="0 0 16 19" fill="none" xmlns="http://www.w3.org/2000/svg">
    <path
        d="M13.9937 3.98859C13.9157 4.25392 13.8272 4.52872 13.712 4.77533C13.3282 5.597 12.7846 6.20102 12.1459 6.48254C11.6479 6.702 11.1209 6.71055 10.6382 6.50507C10.3733 6.98934 10.294 7.53064 10.3415 8.13875C10.4024 8.91746 10.6686 9.77174 11.0001 10.6996C11.073 10.9035 11.1434 11.1002 11.2036 11.2817L13.1044 17.016C13.1758 17.2315 13.129 17.4322 13.0501 17.5802C12.976 17.719 12.8685 17.8252 12.7718 17.9025C12.5768 18.0584 12.3237 18.1779 12.0849 18.2571C11.8461 18.3362 11.5716 18.3916 11.3222 18.383C11.1984 18.3788 11.0487 18.3579 10.9065 18.2908C10.7547 18.2193 10.5973 18.0862 10.5259 17.8707L9.00804 13.2916C8.65658 12.9847 7.93739 12.4138 7.08434 12.0408C6.7674 12.3707 6.34015 12.5646 5.8606 12.6161C5.24183 12.6826 4.54571 12.5146 3.84497 12.1375C3.59448 12.0027 3.36398 11.8243 3.15525 11.6491C3.05407 11.5642 2.95308 11.4757 2.85555 11.3903L2.84361 11.3798C2.74095 11.2899 2.64152 11.2029 2.54079 11.1187C2.12972 10.775 1.76121 10.5344 1.35442 10.4727L1.35439 10.4727C1.28092 10.4615 1.12397 10.424 1.00402 10.2767C0.867855 10.1095 0.873398 9.9212 0.900275 9.80964C0.924743 9.70809 0.972802 9.63187 1.00236 9.58981C1.0358 9.54223 1.07304 9.50028 1.10719 9.46527C1.2371 9.33209 1.43624 9.18447 1.65915 9.04192C2.11621 8.74963 2.78447 8.40847 3.50488 8.17015C4.21514 7.93518 5.0368 7.77973 5.77302 7.92517C6.14913 7.99947 6.5127 8.15442 6.82082 8.42547C7.06876 8.64359 7.26478 8.92285 7.4038 9.26157C7.53105 9.30187 7.65725 9.34533 7.78228 9.39192C7.45332 7.76076 7.47867 5.74966 9.07449 4.07902C9.05585 3.32989 9.42826 2.73536 9.93716 2.29788C10.4893 1.82322 11.2307 1.50212 11.9268 1.29174C12.6293 1.07941 13.3315 0.96631 13.8422 0.932505C14.0901 0.916094 14.3251 0.916007 14.5004 0.944982C14.5467 0.952637 14.6004 0.964126 14.6549 0.982749C14.7029 0.99914 14.7878 1.03294 14.868 1.10318C14.9585 1.18234 15.0663 1.3333 15.0516 1.54353C15.0389 1.72552 14.9394 1.84378 14.8891 1.89474L14.8888 1.89498C14.5866 2.20032 14.3948 2.64506 14.2274 3.18286C14.1755 3.34954 14.131 3.5074 14.0853 3.66886C14.056 3.77283 14.0262 3.8783 13.9937 3.98859Z"
        fill="#27F30C" stroke="black" />
</svg>
    