<svg id="visual" xmlns="http://www.w3.org/2000/svg" xmlns:xlink="http://www.w3.org/1999/xlink" version="1.1" viewBox="0 406.45 900 194.55"><path d="M0 439L16.7 437.8C33.3 436.7 66.7 434.3 100 429.2C133.3 424 166.7 416 200 411.7C233.3 407.3 266.7 406.7 300 406.5C333.3 406.3 366.7 406.7 400 407.5C433.3 408.3 466.7 409.7 500 413.8C533.3 418 566.7 425 600 428.2C633.3 431.3 666.7 430.7 700 428.2C733.3 425.7 766.7 421.3 800 422C833.3 422.7 866.7 428.3 883.3 431.2L900 434L900 601L883.3 601C866.7 601 833.3 601 800 601C766.7 601 733.3 601 700 601C666.7 601 633.3 601 600 601C566.7 601 533.3 601 500 601C466.7 601 433.3 601 400 601C366.7 601 333.3 601 300 601C266.7 601 233.3 601 200 601C166.7 601 133.3 601 100 601C66.7 601 33.3 601 16.7 601L0 601Z" fill="#0066ff"></path><path d="M0 466L16.7 468.7C33.3 471.3 66.7 476.7 100 478.7C133.3 480.7 166.7 479.3 200 475.2C233.3 471 266.7 464 300 460.8C333.3 457.7 366.7 458.3 400 461C433.3 463.7 466.7 468.3 500 468.2C533.3 468 566.7 463 600 464.3C633.3 465.7 666.7 473.3 700 474.2C733.3 475 766.7 469 800 471.3C833.3 473.7 866.7 484.3 883.3 489.7L900 495L900 601L883.3 601C866.7 601 833.3 601 800 601C766.7 601 733.3 601 700 601C666.7 601 633.3 601 600 601C566.7 601 533.3 601 500 601C466.7 601 433.3 601 400 601C366.7 601 333.3 601 300 601C266.7 601 233.3 601 200 601C166.7 601 133.3 601 100 601C66.7 601 33.3 601 16.7 601L0 601Z" fill="#0097ff"></path><path d="M0 516L16.7 522.2C33.3 528.3 66.7 540.7 100 548.2C133.3 555.7 166.7 558.3 200 554.7C233.3 551 266.7 541 300 533.8C333.3 526.7 366.7 522.3 400 522.5C433.3 522.7 466.7 527.3 500 529.8C533.3 532.3 566.7 532.7 600 534C633.3 535.3 666.7 537.7 700 541.7C733.3 545.7 766.7 551.3 800 552.8C833.3 554.3 866.7 551.7 883.3 550.3L900 549L900 601L883.3 601C866.7 601 833.3 601 800 601C766.7 601 733.3 601 700 601C666.7 601 633.3 601 600 601C566.7 601 533.3 601 500 601C466.7 601 433.3 601 400 601C366.7 601 333.3 601 300 601C266.7 601 233.3 601 200 601C166.7 601 133.3 601 100 601C66.7 601 33.3 601 16.7 601L0 601Z" fill="#40bcf3"></path></svg>