<svg width="1000" height="39" viewBox="0 0 1000 39" fill="none" xmlns="http://www.w3.org/2000/svg">
  <path
    d="M790.5 36.2822C731.2 34.1947 673.7 29.1925 597.9 16.5884C568.3 11.5862 521 4.3782 497.4 2.4482C473.8 0.518205 444.8 -0.624039 421.9 0.360654C411.7 0.793919 399.3 0.912082 371.8 3.27534C344.6 5.75677 313.6 9.81371 292.4 13.0041C251.1 19.2668 197.5 21.63 158.4 21.9057C72 22.5359 0 9.77432 0 9.77432V39H1000V25.3325C1000 25.3325 948.5 32.9737 893.8 35.4551C839.5 37.8184 814.1 37.1094 790.5 36.2822Z"
    fill="#77B255" />
</svg>
  